<?xml version="1.0" encoding="UTF-8"?><svg id="Layer_1" xmlns="http://www.w3.org/2000/svg" viewBox="0 0 358.49 54"><defs><style>.cls-1{fill:#000b1d;}.cls-2{fill:#fff;}.cls-3{fill:#b30b00;}</style></defs><g><rect class="cls-3" width="55.38" height="54" rx="9.81" ry="9.81"/><g id="Layer_3"><g id="Layer_86"><path id="_64" class="cls-2" d="m44.35,31.26c-2.59-2.76-9.76-1.64-11.45-1.35-2.48-2.41-4.2-5.26-4.79-6.31.93-2.66,1.54-5.49,1.64-8.27,0-2.52-1-5.23-3.81-5.23-.98.02-1.87.56-2.36,1.38-1.19,2.06-.72,6.31,1.19,10.6-1.12,3.15-2.73,7.71-4.86,11.4-2.87,1.14-8.97,3.95-9.55,7.05-.19.91.14,1.85.84,2.48.68.61,1.56.91,2.48.89,3.67,0,7.33-5.09,9.81-9.46,2.08-.72,5.4-1.68,8.74-2.29,3.88,3.39,7.33,3.9,9.09,3.9,2.38,0,3.27-1.03,3.6-1.89.35-.98.14-2.1-.56-2.9Zm-2.52,1.78c-.12.68-.98,1.35-2.59,1-1.87-.47-3.62-1.35-5.09-2.57,1.26-.21,4.2-.49,6.28-.09.75.14,1.61.56,1.4,1.66ZM25.1,12.37c.16-.3.47-.51.82-.51.89,0,1.07,1.07,1.07,1.96-.12,2.13-.58,4.3-1.17,6.24-1.49-3.97-1.28-6.73-.72-7.68Zm-.21,19.41c.79-1.56,1.92-4.41,2.31-5.56.89,1.47,2.38,3.32,3.18,4.16.02-.02-3.04.61-5.49,1.4Zm-5.86,4.02c-2.36,3.78-4.67,6.17-6.03,6.17-.21,0-.44-.07-.61-.21-.26-.21-.37-.54-.3-.86.26-1.35,2.94-3.32,6.94-5.09Z"/></g></g></g><g><path class="cls-1" d="m77.23,32.39l-1.78,5.48c-.07.18-.19.3-.41.3h-4.29c-.26,0-.33-.15-.3-.37l7.4-21.35c.15-.41.3-.85.37-2.26,0-.15.11-.26.22-.26h5.92c.19,0,.26.04.3.22l8.4,23.68c.07.18.04.33-.19.33h-4.81c-.22,0-.33-.07-.41-.26l-1.89-5.51h-8.55Zm7.18-4.63c-.74-2.44-2.22-6.92-2.92-9.55h-.04c-.59,2.48-1.92,6.55-2.89,9.55h5.85Z"/><path class="cls-1" d="m93.31,29.14c0-5.29,3.96-9.73,10.73-9.73.3,0,.67.04,1.22.07v-7.29c0-.19.11-.26.26-.26h4.66c.19,0,.22.07.22.22v21.87c0,.85.04,1.96.15,2.7,0,.18-.04.26-.26.33-2.55,1.07-5,1.48-7.29,1.48-5.48,0-9.69-3.11-9.69-9.4Zm11.95-5.25c-.37-.15-.85-.18-1.37-.18-2.85,0-5.29,1.74-5.29,5.18,0,3.66,2.11,5.25,4.92,5.25.63,0,1.22-.04,1.74-.22v-10.03Z"/><path class="cls-1" d="m131.26,28.88c0,5.81-3.77,9.66-9.1,9.66-6.33,0-9.14-4.77-9.14-9.55,0-5.25,3.52-9.58,9.21-9.58s9.03,4.48,9.03,9.47Zm-13.02.04c0,3.26,1.52,5.33,4,5.33,2.15,0,3.77-1.85,3.77-5.25,0-2.89-1.18-5.29-4-5.29-2.15,0-3.77,1.92-3.77,5.22Z"/><path class="cls-1" d="m138.7,11.93c.3,0,.37.04.37.3v7.59c.96-.26,2-.41,3.11-.41,5.44,0,8.88,3.85,8.88,8.81,0,6.92-5.48,10.32-11.1,10.32-1.96,0-3.92-.26-5.81-.85-.11-.04-.22-.22-.22-.37V12.19c0-.19.07-.26.26-.26h4.51Zm2.55,11.84c-1.18,0-1.7.19-2.18.3v10.03c.44.11.93.15,1.37.15,2.81,0,5.37-1.7,5.37-5.55,0-3.37-1.96-4.92-4.55-4.92Z"/><path class="cls-1" d="m157.95,30.32c.19,2.11,1.67,3.85,5.29,3.85,1.67,0,3.15-.26,4.55-.85.11-.07.22-.04.22.19v3.51c0,.26-.07.37-.26.44-1.48.7-3.11,1.07-5.66,1.07-6.96,0-9.4-4.77-9.4-9.36,0-5.11,3.15-9.77,8.95-9.77s7.81,4.33,7.81,7.99c0,1.15-.07,2.07-.19,2.48-.04.19-.11.26-.3.3-.48.07-1.89.15-3.81.15h-7.22Zm4.81-3.59c1.18,0,1.7-.04,1.85-.07v-.26c0-.89-.7-2.92-3.15-2.92s-3.33,1.74-3.55,3.26h4.85Z"/><path class="cls-1" d="m185.04,32.39l-1.78,5.48c-.07.18-.19.3-.41.3h-4.29c-.26,0-.33-.15-.3-.37l7.4-21.35c.15-.41.3-.85.37-2.26,0-.15.11-.26.22-.26h5.92c.19,0,.26.04.3.22l8.4,23.68c.07.18.04.33-.19.33h-4.81c-.22,0-.33-.07-.41-.26l-1.89-5.51h-8.55Zm7.18-4.63c-.74-2.44-2.22-6.92-2.92-9.55h-.04c-.59,2.48-1.92,6.55-2.89,9.55h5.85Z"/><path class="cls-1" d="m215.22,37.65c0,.19-.04.26-.19.3-1.18.48-2.7.59-4.14.59-5.99,0-9.77-4.03-9.77-9.47s4.18-9.66,10.47-9.66c1.81,0,2.81.19,3.4.41.19.07.22.18.22.41l-.04,3.81c0,.26-.15.3-.3.26-.7-.26-1.74-.44-3.11-.44-3.11,0-5.37,1.7-5.37,5.03,0,3.85,2.85,5.11,5.44,5.11,1.29,0,2.44-.15,3.07-.33.22-.07.3,0,.3.15v3.85Z"/><path class="cls-1" d="m222.05,19.77c.26,0,.37.11.44.33.19.48.37,1.26.41,2.07,1.22-1.44,3.26-2.78,5.88-2.78.22,0,.3.07.3.3v4.55c0,.18-.07.26-.33.26-2.66-.11-4.81.7-5.59,1.59l-.04,11.77c0,.22-.07.3-.33.3h-4.44c-.3,0-.37-.11-.37-.33v-12.77c0-1.59-.04-3.74-.19-5.03,0-.18.04-.26.22-.26h4.03Z"/><path class="cls-1" d="m248.03,28.88c0,5.81-3.77,9.66-9.1,9.66-6.33,0-9.14-4.77-9.14-9.55,0-5.25,3.52-9.58,9.21-9.58s9.03,4.48,9.03,9.47Zm-13.02.04c0,3.26,1.52,5.33,4,5.33,2.15,0,3.77-1.85,3.77-5.25,0-2.89-1.18-5.29-4-5.29-2.15,0-3.77,1.92-3.77,5.22Z"/><path class="cls-1" d="m255.46,11.93c.3,0,.37.04.37.3v7.59c.96-.26,2-.41,3.11-.41,5.44,0,8.88,3.85,8.88,8.81,0,6.92-5.48,10.32-11.1,10.32-1.96,0-3.92-.26-5.81-.85-.11-.04-.22-.22-.22-.37V12.19c0-.19.07-.26.26-.26h4.51Zm2.55,11.84c-1.18,0-1.7.19-2.18.3v10.03c.44.11.93.15,1.37.15,2.81,0,5.37-1.7,5.37-5.55,0-3.37-1.96-4.92-4.55-4.92Z"/><path class="cls-1" d="m284.81,34.06c0,.96,0,1.74.07,2.63,0,.07,0,.15-.07.19-3.26,1.26-5.4,1.67-8.07,1.67-4.11,0-7.47-1.89-7.47-6.18,0-3.92,3.44-5.99,8.36-5.99,1,0,1.85,0,2.18.07v-.26c0-.7-.44-2.33-3.55-2.33-1.85,0-3.48.37-4.88,1-.15.07-.33,0-.33-.18v-3.74c0-.19.04-.3.26-.37,1.63-.78,3.74-1.15,5.81-1.15,5.33,0,7.7,3.29,7.7,7.51v7.14Zm-5-3.81c-.59-.07-1.11-.11-1.85-.11-2.63,0-3.7.85-3.7,2.18,0,1.22.93,2.22,3.26,2.22.85,0,1.59-.11,2.29-.33v-3.96Z"/><path class="cls-1" d="m297.48,37.54c0,.22-.04.41-.26.48-1.04.37-2,.52-3.29.52-3.22,0-5.11-1.59-5.11-5.29v-9.18h-2.22c-.22-.04-.3-.11-.3-.33v-3.63c0-.26.07-.33.33-.33h2.22c.04-1.26.19-3.44.37-4.48.04-.18.15-.3.33-.33l4.33-.55c.19-.04.3-.04.3.22-.11,1.15-.19,3.33-.19,5.14h3.4c.22,0,.3.07.3.3v3.74c0,.19-.07.22-.26.26h-3.48v7.92c0,1.63.48,2.37,2,2.37.44,0,.81-.07,1.26-.15.15,0,.26.04.26.26v3.07Z"/><path class="cls-1" d="m308.58,14.26c0-.22.04-.3.22-.3,1.52-.04,4.44-.11,7.25-.11,7.47,0,10.06,4.14,10.06,8.18,0,6-4.63,8.55-10.32,8.55h-2.11v7.29c0,.18-.07.3-.3.3h-4.55c-.19,0-.26-.11-.26-.3V14.26Zm5.11,11.77c.63.04,1.04.04,2.07.04,2.92,0,5.25-.89,5.25-3.92,0-2.33-1.59-3.81-4.81-3.81-1.18,0-2.18.04-2.52.07v7.62Z"/><path class="cls-1" d="m332.52,19.77c.26,0,.37.11.44.33.19.48.37,1.26.41,2.07,1.22-1.44,3.26-2.78,5.88-2.78.22,0,.3.07.3.3v4.55c0,.18-.07.26-.33.26-2.66-.11-4.81.7-5.59,1.59l-.04,11.77c0,.22-.07.3-.33.3h-4.44c-.3,0-.37-.11-.37-.33v-12.77c0-1.59-.04-3.74-.19-5.03,0-.18.04-.26.22-.26h4.03Z"/><path class="cls-1" d="m358.49,28.88c0,5.81-3.77,9.66-9.1,9.66-6.33,0-9.14-4.77-9.14-9.55,0-5.25,3.52-9.58,9.21-9.58s9.03,4.48,9.03,9.47Zm-13.02.04c0,3.26,1.52,5.33,4,5.33,2.15,0,3.77-1.85,3.77-5.25,0-2.89-1.18-5.29-4-5.29-2.15,0-3.77,1.92-3.77,5.22Z"/></g></svg>